# xmcd
#
# Track frame offsets:
#	150
#	18442
#	50705
#	84037
#
# Disc length: 1486 seconds
#
# Revision: 1
# Processed by: cddbd v1.5.2PL0 Copyright (c) Steve Scherf et al.
# Submitted via: audiograbber 1.83.01
#
DISCID=2405cc04
DTITLE=Kenny Thomas - Trippin' On Your Love (Single)
DYEAR=1993
DGENRE=Pop
TTITLE0=Trippin' On Your Love (Sassy 7'')
TTITLE1=Trippin' On Your Love (Sassy Full Length)
TTITLE2=Trippin' On Your Love (Roger's Organic Mix)
TTITLE3=Trippin' On Your Love (Roger's Raw Mix)
EXTD=
EXTT0=
EXTT1=
EXTT2=
EXTT3=
PLAYORDER=
